Coordinates
version=1
nRows=5
nColumns=63
inDegrees=yes

Units are S.I. units (second, meters, Newtons, ...)
If the header above contains a line with 'inDegrees', this indicates whether rotational values are in degrees (yes) or radians (no).

endheader
time	pelvis_tilt	pelvis_list	pelvis_rotation	pelvis_tx	pelvis_ty	pelvis_tz	hip_flexion_r	hip_adduction_r	hip_rotation_r	knee_angle_r	knee_angle_r_beta	ankle_angle_r	subtalar_angle_r	mtp_angle_r	hip_flexion_l	hip_adduction_l	hip_rotation_l	knee_angle_l	knee_angle_l_beta	ankle_angle_l	subtalar_angle_l	mtp_angle_l	L5_S1_Flex_Ext	L5_S1_Lat_Bending	L5_S1_axial_rotation	L4_L5_Flex_Ext	L4_L5_Lat_Bending	L4_L5_axial_rotation	L3_L4_Flex_Ext	L3_L4_Lat_Bending	L3_L4_axial_rotation	L2_L3_Flex_Ext	L2_L3_Lat_Bending	L2_L3_axial_rotation	L1_L2_Flex_Ext	L1_L2_Lat_Bending	L1_L2_axial_rotation	L1_T12_Flex_Ext	L1_T12_Lat_Bending	L1_T12_axial_rotation	Abs_r3	Abs_r2	Abs_r1	Abs_t1	Abs_t2	neck_flexion	neck_bending	neck_rotation	arm_flex_r	arm_add_r	arm_rot_r	elbow_flex_r	pro_sup_r	wrist_flex_r	wrist_dev_r	arm_flex_l	arm_add_l	arm_rot_l	elbow_flex_l	pro_sup_l	wrist_flex_l	wrist_dev_l
      0.00000000	     -0.66049699	     -4.01119096	     95.19064454	      0.19841337	      1.11260484	      0.40044742	     -1.22648732	      0.47163347	      7.11279179	      0.88005524	      0.01535986	     19.70013752	      3.71493868	      0.00000000	     -0.85200401	     -1.49737217	     -1.27639224	      2.24733756	      0.03922344	     15.11385648	     -0.98460149	      0.00000000	     -0.02965646	     -0.10667371	      1.59670400	     -0.05507501	     -0.14187603	      1.69649800	     -0.04872259	     -0.25936645	      1.69649800	     -0.03389436	     -0.25936645	      1.39711600	     -0.02753899	     -0.21752903	      1.29732200	     -0.01694570	     -0.16523757	      1.19752800	     -0.21183310	     -1.20671432	      8.88038862	      0.00000000	      0.00000000	     10.69686079	      1.34756799	    -19.88880281	     11.64712889	     -9.74979714	     56.44751784	     70.60964872	     21.79631131	      5.84862833	     -3.61944918	     27.35417538	      3.28611386	    124.79715650	     24.29965301	     88.80856882	    -24.64581632	     -3.71675134
      0.02439024	     -0.72848738	     -4.45134776	     96.67692585	      0.19753864	      1.11051657	      0.40257245	     -0.75241312	      0.43247507	      5.79476221	      0.91429853	      0.01595752	     19.97571267	      4.04666670	      0.00000000	     -0.06007416	     -1.46301256	     -0.53487238	      2.38435800	      0.04161490	     16.37390626	      0.44022223	      0.00000000	      0.01411390	     -0.13646042	      1.37208883	      0.02621093	     -0.18149235	      1.45784439	      0.02318773	     -0.33178986	      1.45784439	      0.01613078	     -0.33178986	      1.20057773	      0.01310617	     -0.27827008	      1.11482218	      0.00806468	     -0.21137718	      1.02906662	      0.10081420	     -1.54366752	      7.63114646	      0.00000000	      0.00000000	     11.06580115	      0.99316669	    -21.01016138	     11.75838917	     -9.43862336	     54.84258802	     71.02617380	     17.08158820	      6.89174759	     -3.37638811	     27.67460173	      1.77094153	    119.77423147	     26.19610592	     88.88595396	    -24.26593007	     -3.10252834
      0.04878049	     -0.76269037	     -4.74270658	     97.92688514	      0.19669850	      1.10897374	      0.40468497	     -0.40392283	      0.39725302	      4.51006390	      0.95549694	      0.01667657	     20.39292773	      4.48532618	      0.00000000	      0.56582195	     -1.43808379	     -0.08004535	      2.57764762	      0.04498844	     17.32048610	      1.91686157	      0.00000000	      0.03788470	     -0.15430656	      1.15078303	      0.07035567	     -0.20522772	      1.22270697	      0.06224077	     -0.37518096	      1.22270697	      0.04329842	     -0.37518096	      1.00693515	      0.03517973	     -0.31466193	      0.93501121	      0.02164732	     -0.23902085	      0.86308727	      0.27060660	     -1.74554661	      6.40030999	      0.00000000	      0.00000000	     11.52749562	      0.69330230	    -21.65486709	     12.05252478	     -9.23194284	     53.97044270	     71.35488462	     15.47510766	      6.95005484	     -3.64161518	     27.92886634	      0.72347571	    116.00105424	     27.58047995	     88.93523687	    -23.77089588	     -2.68784415
      0.07317073	     -0.75567183	     -4.80320915	     97.97408585	      0.19690059	      1.10824981	      0.40639909	     -0.24164408	      0.39322179	      4.57195093	      0.90658297	      0.01582286	     20.56634197	      4.51422123	      0.00000000	      0.67059596	     -1.41355852	     -0.00407966	      2.47006927	      0.04311084	     17.55437711	      1.95536600	      0.00000000	      0.04587677	     -0.15256070	      1.13039796	      0.08519774	     -0.20290573	      1.20104784	      0.07537094	     -0.37093609	      1.20104784	      0.05243256	     -0.37093609	      0.98909822	      0.04260116	     -0.31110178	      0.91844835	      0.02621398	     -0.23631652	      0.84779847	      0.32769315	     -1.72579715	      6.28693436	      0.00000000	      0.00000000	     11.51999944	      0.70922281	    -21.64991520	     12.44759768	     -9.22349421	     53.62839040	     71.47805939	     15.43372442	      6.97557283	     -3.74522588	     28.36559494	      0.83880661	    115.77940152	     27.51802505	     88.87304785	    -23.81756891	     -2.66354507
      0.09756098	     -0.63698756	     -5.01369740	     99.50283154	      0.19546821	      1.10724300	      0.40855521	      0.05669369	      0.49238726	      3.53764548	      1.01345729	      0.01768817	     21.06823300	      3.96052432	      0.00000000	      1.40742559	     -1.53801990	      0.69881764	      3.02076732	      0.05272234	     18.31832684	      3.64279856	      0.00000000	      0.05825192	     -0.14332578	      0.80083616	      0.10817964	     -0.19062329	      0.85088842	      0.09570208	     -0.34848231	      0.85088842	      0.06657612	     -0.34848231	      0.70073164	      0.05409273	     -0.29226994	      0.65067938	      0.03328515	     -0.22201164	      0.60062712	      0.41608764	     -1.62132994	      4.45401048	      0.00000000	      0.00000000	     12.53881774	      0.65790658	    -21.22157142	     12.93120765	     -9.20938592	     54.04563070	     71.79232091	     15.40735344	      6.48693795	     -4.81454661	     28.48414728	     -0.19429924	    111.40660293	     29.20905302	     88.99146469	    -21.68325045	     -1.70210763
